<?xml version="1.0" standalone="no"?>
<!DOCTYPE svg PUBLIC "-//W3C//DTD SVG 20010904//EN"
 "http://www.w3.org/TR/2001/REC-SVG-20010904/DTD/svg10.dtd">
<svg version="1.0" xmlns="http://www.w3.org/2000/svg"
 width="500.000000pt" height="500.000000pt" viewBox="0 0 500.000000 500.000000"
 preserveAspectRatio="xMidYMid meet">

<g transform="translate(0.000000,500.000000) scale(0.100000,-0.100000)"
fill="#ff0000" stroke="none">
<path d="M2545 4663 c-12 -2 -36 -17 -55 -34 -65 -56 -153 -60 -206 -10 -34
31 -79 36 -118 12 -19 -12 -41 -32 -49 -45 -33 -50 -124 -71 -181 -41 -37 19
-39 19 -33 -5 3 -12 0 -20 -7 -20 -7 0 -12 10 -12 23 1 18 -4 21 -24 19 -33
-5 -70 -29 -76 -50 -13 -40 -27 -58 -59 -79 -37 -24 -104 -31 -147 -14 -32 12
-72 4 -97 -20 -17 -16 -19 -24 -10 -46 5 -14 7 -34 3 -42 -4 -9 -8 -20 -8 -25
-2 -20 -26 -17 -26 4 0 20 -2 19 -26 -10 -39 -46 -76 -62 -132 -55 -37 5 -54
2 -80 -14 -38 -24 -51 -54 -56 -125 -2 -28 -8 -50 -13 -49 -5 1 -22 -9 -37
-22 -16 -14 -50 -27 -88 -34 -33 -6 -67 -16 -75 -23 -25 -20 -35 -58 -21 -76
10 -12 10 -16 1 -19 -7 -3 -13 -14 -13 -24 0 -37 -41 -116 -65 -127 -13 -6
-26 -20 -30 -32 -3 -11 -11 -17 -17 -14 -6 4 -5 10 3 15 20 12 -12 12 -45 -1
-43 -16 -57 -59 -50 -148 l7 -78 -40 -40 c-21 -21 -55 -48 -73 -59 -47 -28
-58 -70 -37 -139 28 -89 18 -147 -33 -181 -16 -11 -35 -32 -41 -47 -6 -16 -15
-28 -20 -28 -5 0 -9 -15 -9 -33 0 -35 26 -81 41 -72 5 4 51 11 102 16 50 5 99
12 108 14 17 6 52 151 45 190 -2 11 4 31 14 45 9 14 32 68 50 120 19 52 42
110 52 128 10 18 16 37 13 43 -4 5 -2 9 3 9 10 0 25 38 23 54 -1 5 7 15 19 23
11 8 20 20 20 28 0 7 17 36 38 64 20 28 54 74 74 103 21 29 49 66 63 82 13 16
22 33 19 37 -3 5 1 9 8 9 7 0 40 27 72 61 32 33 88 85 125 116 36 31 66 63 66
72 0 10 9 16 25 16 15 0 25 6 25 15 0 8 10 15 21 16 12 1 42 14 65 30 24 16
78 47 119 68 41 22 78 43 81 48 3 5 10 8 15 7 9 -2 21 2 90 31 23 10 56 21 73
25 17 4 31 13 31 21 0 8 5 14 10 14 6 0 10 -4 10 -9 0 -5 33 -1 73 10 266 69
604 68 882 -2 79 -20 222 -70 259 -90 13 -8 21 -8 26 1 5 8 9 8 13 -3 3 -8 45
-36 94 -62 85 -46 232 -141 244 -158 3 -5 10 -9 15 -10 18 -4 224 -204 287
-279 43 -51 169 -246 206 -318 19 -36 35 -67 37 -69 1 -1 59 5 128 15 100 13
126 20 128 33 5 45 4 57 -5 69 -5 6 -6 12 -1 12 17 0 -39 49 -64 55 -74 18
-117 81 -109 160 3 30 0 63 -8 81 -13 32 -54 64 -81 64 -28 0 -104 41 -119 64
-8 11 -19 50 -24 86 -14 88 -35 107 -130 119 -89 11 -124 39 -147 117 -8 29
-26 61 -42 75 -24 21 -35 24 -96 21 -113 -4 -132 6 -184 104 -22 40 -34 51
-65 58 -26 7 -48 6 -71 -2 -42 -16 -114 -15 -146 1 -13 7 -36 30 -50 51 -48
70 -91 81 -166 41 -80 -42 -125 -35 -216 36 -36 29 -62 38 -93 32z m92 -205
c-3 -8 -6 -5 -6 6 -1 11 2 17 5 13 3 -3 4 -12 1 -19z m-52 -28 c-3 -5 -10 -10
-16 -10 -5 0 -9 5 -9 10 0 6 7 10 16 10 8 0 12 -4 9 -10z m-840 -20 c3 -5 1
-10 -4 -10 -6 0 -11 5 -11 10 0 6 2 10 4 10 3 0 8 -4 11 -10z m-124 -147 c-8
-15 -10 -15 -11 -2 0 17 10 32 18 25 2 -3 -1 -13 -7 -23z m1700 0 c-8 -15 -10
-15 -11 -2 0 17 10 32 18 25 2 -3 -1 -13 -7 -23z m284 7 c3 -5 1 -10 -4 -10
-6 0 -11 5 -11 10 0 6 2 10 4 10 3 0 8 -4 11 -10z m-2235 -92 c0 -19 -2 -20
-10 -8 -13 19 -13 30 0 30 6 0 10 -10 10 -22z m26 -85 c-8 -9 -36 17 -36 33 0
10 7 7 21 -7 11 -11 18 -23 15 -26z m-288 -188 c-3 -3 -9 2 -12 12 -6 14 -5
15 5 6 7 -7 10 -15 7 -18z m2908 -182 c-10 -10 -19 5 -10 18 6 11 8 11 12 0 2
-7 1 -15 -2 -18z m66 -4 c-3 -19 -9 -29 -19 -27 -8 2 -13 8 -11 13 2 6 6 9 11
8 4 -2 7 6 7 17 0 11 4 20 8 20 5 0 7 -14 4 -31z m78 -59 c0 -5 -9 -14 -20
-20 -22 -12 -23 -10 -14 14 7 17 34 22 34 6z m-3340 -41 c0 -11 -4 -18 -10
-14 -5 3 -7 12 -3 20 7 21 13 19 13 -6z m3290 12 c0 -13 -28 -22 -35 -11 -3 4
1 11 7 13 20 8 28 8 28 -2z m-60 -15 c0 -3 -4 -8 -10 -11 -5 -3 -10 -1 -10 4
0 6 5 11 10 11 6 0 10 -2 10 -4z m-3310 -15 c0 -6 -4 -13 -10 -16 -5 -3 -10 1
-10 9 0 9 5 16 10 16 6 0 10 -4 10 -9z m3435 -59 c3 -11 -1 -32 -9 -47 l-15
-28 -9 34 c-13 47 18 86 33 41z m146 -85 c-8 -8 -11 -7 -11 4 0 20 13 34 18
19 3 -7 -1 -17 -7 -23z m-3631 -111 c0 -8 -4 -18 -10 -21 -5 -3 -10 3 -10 14
0 12 5 21 10 21 6 0 10 -6 10 -14z m-41 -139 c0 -9 -2 -8 -6 1 -2 6 -10 9 -15
6 -7 -4 -8 -2 -4 5 9 13 26 5 25 -12z m-119 -318 c0 -6 -4 -7 -10 -4 -5 3 -10
11 -10 16 0 6 5 7 10 4 6 -3 10 -11 10 -16z"/>
<path d="M2265 4359 c-87 -13 -100 -19 -25 -12 36 3 103 9 150 13 l85 7 -75 0
c-41 0 -102 -3 -135 -8z"/>
<path d="M2481 4366 c2 -2 58 -6 124 -9 77 -3 102 -2 70 3 -50 8 -202 13 -194
6z"/>
<path d="M2755 4340 c17 -4 41 -8 55 -8 22 0 22 1 -5 8 -16 4 -41 8 -55 8 -22
0 -22 -1 5 -8z"/>
<path d="M2138 4333 c6 -2 18 -2 25 0 6 3 1 5 -13 5 -14 0 -19 -2 -12 -5z"/>
<path d="M2045 4315 c-54 -17 -33 -18 30 -1 28 8 41 14 30 14 -11 0 -38 -5
-60 -13z"/>
<path d="M2848 4323 c7 -3 16 -2 19 1 4 3 -2 6 -13 5 -11 0 -14 -3 -6 -6z"/>
<path d="M2900 4310 c34 -11 60 -11 35 0 -11 5 -29 8 -40 8 -16 0 -15 -2 5 -8z"/>
<path d="M1955 4290 c-13 -5 -14 -9 -5 -9 8 0 24 4 35 9 13 5 14 9 5 9 -8 0
-24 -4 -35 -9z"/>
<path d="M3009 4279 c30 -10 56 -17 58 -15 5 5 -86 36 -101 35 -6 0 13 -9 43
-20z"/>
<path d="M1900 4270 c-8 -5 -10 -10 -5 -10 6 0 17 5 25 10 8 5 11 10 5 10 -5
0 -17 -5 -25 -10z"/>
<path d="M2353 4237 c-42 -29 -57 -66 -55 -142 1 -108 40 -155 128 -155 43 0
57 5 82 28 42 40 57 101 43 177 -14 80 -42 107 -113 112 -42 2 -59 -2 -85 -20z
m111 -40 c44 -44 42 -182 -4 -207 -60 -32 -100 17 -100 122 0 60 3 69 26 87
34 27 50 26 78 -2z"/>
<path d="M1810 4235 c-14 -8 -20 -14 -15 -14 6 0 21 6 35 14 14 8 21 14 15 14
-5 0 -21 -6 -35 -14z"/>
<path d="M2720 4211 c0 -28 1 -29 39 -24 21 3 41 1 45 -5 12 -19 -34 -206 -55
-221 -31 -22 -22 -38 28 -50 37 -10 48 -9 54 1 4 7 3 18 -3 25 -8 10 -4 44 13
124 l24 111 29 -6 c16 -3 35 -14 42 -24 14 -20 19 -17 28 20 5 23 3 28 -16 33
-240 55 -228 54 -228 16z"/>
<path d="M3147 4229 c7 -7 15 -10 18 -7 3 3 -2 9 -12 12 -14 6 -15 5 -6 -5z"/>
<path d="M2041 4201 l-44 -16 7 -134 c4 -79 3 -132 -2 -130 -7 3 -123 140
-168 198 -2 2 -23 -5 -48 -14 -48 -18 -59 -39 -27 -50 25 -8 94 -195 85 -231
-7 -27 7 -31 50 -14 30 11 34 36 9 44 -12 4 -29 38 -50 98 l-31 93 56 -64
c119 -134 116 -131 139 -125 22 6 23 11 25 136 l3 130 29 -74 c16 -40 29 -90
30 -110 1 -20 4 -39 7 -43 5 -4 42 9 87 31 8 4 -12 34 -23 34 -14 0 -15 1 -56
117 -18 51 -27 92 -23 107 8 32 -3 35 -55 17z"/>
<path d="M1686 4179 c-32 -17 -56 -32 -54 -35 3 -2 33 12 69 31 79 42 67 46
-15 4z"/>
<path d="M3261 4176 c2 -2 15 -9 29 -15 24 -11 24 -11 6 3 -16 13 -49 24 -35
12z"/>
<path d="M1544 4094 c-38 -26 -76 -53 -84 -62 -13 -13 131 80 155 100 26 22
-10 3 -71 -38z"/>
<path d="M3123 4093 c6 -32 -78 -223 -98 -223 -7 0 -15 -6 -18 -13 -7 -19 83
-63 93 -47 4 7 5 21 3 31 -9 34 69 205 98 214 29 10 23 30 -16 48 -53 25 -68
23 -62 -10z"/>
<path d="M3444 4068 c86 -67 158 -119 161 -116 4 4 -149 119 -174 131 -9 4 -3
-3 13 -15z"/>
<path d="M3354 3932 c-43 -27 -89 -86 -104 -132 -35 -107 96 -201 191 -137 77
52 124 148 99 205 -29 68 -126 101 -186 64z m120 -54 c9 -12 16 -32 16 -44 0
-25 -54 -108 -83 -129 -46 -32 -107 -7 -107 45 0 30 51 112 83 135 32 22 73
19 91 -7z"/>
<path d="M1272 3877 c-34 -34 -62 -65 -62 -68 0 -3 29 24 65 59 36 36 64 67
62 68 -2 2 -31 -25 -65 -59z"/>
<path d="M1484 3915 c-39 -23 -74 -74 -74 -107 0 -28 49 -114 82 -146 60 -57
109 -59 172 -9 42 34 54 80 37 139 -20 66 -107 148 -158 148 -10 0 -37 -11
-59 -25z m113 -76 c67 -66 81 -133 32 -160 -28 -15 -60 -5 -94 28 -63 62 -80
119 -48 155 27 30 65 22 110 -23z"/>
<path d="M3685 3870 c27 -27 51 -50 54 -50 3 0 -17 23 -44 50 -27 28 -51 50
-54 50 -3 0 17 -22 44 -50z"/>
<path d="M2280 3854 c-162 -29 -349 -103 -489 -194 -45 -29 -61 -44 -53 -52 7
-7 29 2 74 32 146 97 329 166 505 190 91 13 323 9 386 -6 22 -5 26 -3 22 8
-14 36 -294 50 -445 22z"/>
<path d="M2740 3828 c0 -8 32 -22 82 -36 233 -65 461 -220 621 -422 67 -84 75
-92 81 -82 10 16 -64 112 -158 204 -103 102 -132 128 -143 128 -5 0 -24 13
-43 30 -71 61 -285 158 -407 185 -24 5 -33 3 -33 -7z"/>
<path d="M2258 3801 c-99 -22 -141 -34 -216 -63 -90 -35 -50 -31 59 6 57 19
154 42 214 52 268 41 576 -24 792 -168 23 -15 48 -28 55 -28 24 1 -126 89
-212 126 -158 66 -255 86 -440 90 -135 3 -181 0 -252 -15z"/>
<path d="M1169 3763 l-24 -28 28 24 c25 23 32 31 24 31 -2 0 -14 -12 -28 -27z"/>
<path d="M2305 3724 c-4 -16 -9 -37 -10 -46 -2 -24 -15 -36 -15 -15 0 18 -17
22 -38 9 -9 -7 -8 -13 8 -27 14 -12 20 -31 20 -57 l0 -40 34 21 c31 19 36 20
62 6 15 -8 29 -13 31 -12 8 9 -20 77 -32 77 -8 0 -15 5 -15 10 0 13 13 13 27
-1 8 -8 15 -4 27 13 16 23 16 23 -19 26 -19 2 -35 6 -35 10 0 4 -9 18 -19 31
l-18 24 -8 -29z m5 -124 c0 -5 -2 -10 -4 -10 -3 0 -8 5 -11 10 -3 6 -1 10 4
10 6 0 11 -4 11 -10z"/>
<path d="M3849 3688 c24 -32 45 -58 48 -58 7 0 -55 86 -73 101 -10 8 2 -12 25
-43z"/>
<path d="M1925 3684 c-65 -35 -181 -112 -197 -132 -17 -20 -4 -13 77 44 33 23
86 56 118 74 31 17 57 34 57 36 0 6 -3 5 -55 -22z"/>
<path d="M3723 3703 c-7 -3 -13 -12 -13 -22 0 -29 -169 -157 -194 -148 -30 12
-36 -18 -10 -50 26 -34 54 -35 54 -3 0 10 25 37 58 61 31 24 66 50 76 59 18
14 18 14 9 -5 -38 -74 -103 -218 -103 -229 0 -7 8 -20 18 -29 18 -16 24 -13
124 63 63 48 111 78 120 75 8 -3 21 1 28 10 7 8 8 15 3 15 -5 0 -17 14 -27 31
-14 24 -20 28 -32 18 -8 -6 -14 -19 -14 -28 0 -9 -22 -32 -48 -51 -26 -19 -56
-43 -66 -52 -34 -30 -37 -20 -12 31 33 63 86 180 86 187 0 16 -47 70 -57 67z"/>
<path d="M1059 3623 c-13 -16 -12 -17 4 -4 9 7 17 15 17 17 0 8 -8 3 -21 -13z"/>
<path d="M1203 3625 c-31 -22 -115 -143 -107 -156 3 -6 15 -8 27 -5 18 4 63
-22 104 -61 7 -6 28 -21 47 -32 19 -12 37 -33 40 -46 9 -36 28 -31 63 19 22
31 28 47 21 54 -8 8 -17 8 -30 1 -26 -14 -80 18 -76 46 3 22 35 25 120 11 45
-8 47 -7 62 23 9 17 13 32 9 33 -8 1 -33 3 -110 6 -38 2 -43 5 -43 27 0 73
-72 119 -127 80z m65 -57 c18 -18 14 -63 -7 -83 -19 -16 -21 -16 -50 5 -36 25
-39 42 -11 70 23 23 50 26 68 8z"/>
<path d="M2780 3621 c0 -15 -5 -18 -22 -14 -23 5 -23 5 2 -19 42 -40 64 -41
77 -2 9 32 9 34 -13 34 -13 0 -24 5 -24 10 0 6 -4 10 -10 10 -5 0 -10 -9 -10
-19z"/>
<path d="M3925 3583 c15 -24 30 -43 32 -43 7 0 -31 61 -46 73 -8 7 -2 -7 14
-30z"/>
<path d="M1688 3579 c-19 -20 -23 -39 -10 -39 14 0 53 46 45 53 -9 10 -16 8
-35 -14z"/>
<path d="M3210 3560 c19 -16 39 -30 45 -30 12 0 -57 59 -70 60 -5 0 6 -14 25
-30z"/>
<path d="M1023 3568 c-15 -20 -25 -38 -20 -38 3 0 12 11 21 25 17 26 16 35 -1
13z"/>
<path d="M1582 3483 c-39 -43 -62 -77 -62 -92 0 -16 -4 -21 -14 -18 -30 12
-173 -248 -211 -382 -5 -15 -3 -22 4 -20 6 2 33 54 60 116 56 130 153 280 245
377 58 62 71 86 48 86 -4 0 -36 -30 -70 -67z"/>
<path d="M1922 3514 c-14 -14 -19 -25 -13 -29 6 -3 11 -14 11 -24 0 -13 8 -17
35 -17 29 1 34 4 29 19 -3 10 0 24 6 32 10 12 9 15 -8 15 -12 0 -25 6 -29 13
-6 9 -14 7 -31 -9z"/>
<path d="M1617 3449 c-87 -94 -148 -181 -205 -294 -43 -86 -76 -175 -68 -183
3 -3 8 4 11 14 19 58 74 179 114 244 55 93 96 146 180 233 36 37 60 67 54 67
-6 0 -45 -36 -86 -81z"/>
<path d="M4001 3455 c23 -44 46 -84 52 -90 14 -16 -59 128 -78 150 -9 11 3
-16 26 -60z"/>
<path d="M3270 3514 c0 -6 26 -36 58 -66 31 -31 71 -73 87 -94 17 -21 38 -47
48 -58 18 -20 18 -20 0 13 -21 39 -192 222 -193 205z"/>
<path d="M967 3483 c-4 -3 -7 -11 -7 -17 0 -6 5 -5 12 2 6 6 9 14 7 17 -3 3
-9 2 -12 -2z"/>
<path d="M3158 3444 c-9 -9 2 -36 24 -57 17 -17 18 -17 18 6 0 12 5 28 12 35
9 9 8 12 -4 12 -9 0 -23 2 -30 5 -8 3 -17 3 -20 -1z"/>
<path d="M926 3401 c-23 -43 -20 -52 5 -12 11 18 18 35 15 38 -2 3 -12 -9 -20
-26z"/>
<path d="M3118 3418 c7 -7 12 -23 12 -35 0 -21 2 -23 22 -12 14 8 18 14 10 17
-6 2 -12 12 -12 23 0 13 -7 19 -22 19 -17 0 -19 -3 -10 -12z"/>
<path d="M4230 3328 c-140 -21 -277 -41 -304 -43 -26 -3 -121 -16 -210 -30
-88 -13 -323 -48 -521 -75 -198 -28 -363 -56 -366 -62 -4 -6 -8 -6 -10 -1 -2
5 -150 -12 -334 -38 -181 -26 -559 -79 -840 -118 -1109 -156 -1219 -172 -1222
-175 -1 -1 6 -56 18 -122 11 -65 24 -144 29 -174 8 -51 15 -93 54 -305 49
-273 61 -328 73 -332 6 -3 124 11 260 31 466 68 1288 185 2213 316 509 71 975
137 1035 146 61 9 134 17 163 18 28 0 52 3 52 7 0 4 26 10 58 13 31 4 100 14
152 22 l96 16 -3 32 c-16 171 -66 664 -73 711 -5 33 -12 93 -15 133 -6 65 -9
72 -29 71 -11 -1 -136 -19 -276 -41z m225 -70 c3 -24 30 -212 59 -418 30 -206
50 -379 46 -383 -4 -4 -33 -9 -66 -10 l-58 -2 -90 218 c-49 119 -90 216 -92
215 -1 -2 12 -106 30 -231 28 -200 30 -227 16 -231 -8 -2 -36 -7 -62 -11 -39
-5 -47 -3 -51 12 -11 36 -119 824 -114 829 9 9 121 24 128 16 4 -4 46 -101 93
-217 47 -115 85 -205 86 -199 0 6 -13 105 -30 220 -16 115 -30 212 -30 216 0
7 39 13 97 16 30 2 32 0 38 -40z m-549 -57 c34 -21 78 -74 88 -106 12 -40 76
-509 76 -557 0 -59 -18 -104 -56 -140 -38 -35 -74 -48 -137 -48 -89 0 -158 62
-177 158 -20 107 -70 487 -70 534 0 107 74 178 185 178 42 0 70 -6 91 -19z
m-334 -436 c31 -220 57 -410 58 -422 0 -22 -10 -25 -110 -36 -11 -2 -25 76
-72 403 -31 223 -61 416 -66 430 l-8 25 70 0 70 0 58 -400z m-248 319 c4 -31
5 -59 3 -61 -3 -2 -27 -6 -55 -10 -27 -3 -55 -8 -60 -12 -7 -4 7 -127 40 -364
28 -196 50 -359 47 -361 -2 -3 -31 -8 -64 -11 l-60 -7 -43 288 c-23 159 -44
312 -47 339 -9 100 -7 97 -79 90 l-64 -7 -7 53 c-3 30 -9 63 -11 74 -4 13 -2
16 3 8 7 -10 43 -8 169 11 235 35 220 37 228 -30z m-561 -28 c96 -35 109 -68
157 -404 22 -153 38 -290 34 -307 -21 -102 -101 -162 -204 -152 -68 6 -108 29
-141 83 -20 32 -47 177 -75 399 -3 22 -9 69 -14 105 -5 36 -10 83 -10 104 0
125 132 215 253 172z m-367 -50 c1 -1 22 -147 48 -326 26 -179 49 -338 51
-355 9 -57 23 -160 21 -162 0 0 -29 -5 -63 -10 -74 -11 -62 -39 -99 232 -15
110 -31 204 -36 209 -4 6 -8 -96 -8 -226 l0 -235 -42 -7 c-23 -4 -44 -3 -48 1
-4 4 -38 110 -75 235 -38 125 -70 226 -72 224 -2 -1 12 -108 31 -237 39 -264
41 -249 -44 -254 -46 -2 -49 0 -54 24 -15 70 -116 814 -112 819 7 6 165 26
169 21 2 -2 34 -105 71 -229 62 -204 91 -281 86 -225 -1 11 -2 124 -1 252 l1
231 50 7 c28 4 50 11 50 15 0 7 69 3 76 -4z m-196 -80 c0 -11 -19 -15 -25 -6
-3 5 1 10 9 10 9 0 16 -2 16 -4z m-470 -35 c20 -10 47 -37 62 -62 24 -39 32
-76 67 -324 29 -206 38 -291 31 -318 -8 -39 -49 -107 -63 -107 -5 0 -5 -6 -1
-12 4 -7 4 -10 0 -6 -4 3 -23 0 -41 -8 -43 -18 -116 -18 -158 0 -40 16 -82 64
-96 108 -13 43 -81 519 -81 571 0 139 149 223 280 158z m1346 -28 c-7 -7 -26
7 -26 19 0 6 6 6 15 -2 9 -7 13 -15 11 -17z m-41 -51 c-19 -4 -37 16 -28 31 3
4 14 0 25 -10 18 -16 19 -18 3 -21z m-1776 14 c76 -40 121 -136 121 -260 0
-87 -13 -136 -46 -175 l-25 -30 90 -168 c66 -122 86 -170 77 -175 -7 -4 -37
-8 -66 -10 l-54 -3 -81 157 c-74 145 -96 174 -117 153 -2 -3 6 -78 19 -167 13
-89 20 -165 16 -169 -5 -4 -33 -10 -64 -13 l-55 -7 -60 421 c-35 239 -57 423
-51 427 12 7 172 30 225 32 24 0 56 -6 71 -13z m-425 -95 c59 -57 80 -120 81
-236 0 -92 -2 -104 -28 -148 -32 -53 -86 -87 -142 -87 -43 0 -42 6 -14 -193
12 -81 19 -150 17 -152 -3 -3 -31 -8 -64 -11 l-59 -6 -58 408 c-31 225 -57
416 -57 425 0 20 110 38 217 35 67 -1 75 -4 107 -35z m2146 -21 c0 -5 -4 -10
-10 -10 -5 0 -10 5 -10 10 0 6 5 10 10 10 6 0 10 -4 10 -10z m1600 -121 c0 -6
-4 -7 -10 -4 -5 3 -10 11 -10 16 0 6 5 7 10 4 6 -3 10 -11 10 -16z m-2059
-282 c-10 -9 -11 -8 -5 6 3 10 9 15 12 12 3 -3 0 -11 -7 -18z"/>
<path d="M3777 3082 c-10 -10 -17 -32 -17 -49 0 -55 68 -510 79 -531 24 -45
85 -35 98 15 10 41 -61 527 -81 558 -20 30 -56 33 -79 7z"/>
<path d="M2654 2914 c-16 -24 -15 -38 20 -287 22 -153 43 -271 52 -284 16 -26
65 -32 81 -10 21 26 19 60 -17 310 -39 272 -47 297 -96 297 -14 0 -30 -10 -40
-26z"/>
<path d="M1593 2764 c-16 -26 -16 -37 21 -293 20 -146 42 -271 48 -279 24 -28
48 -34 74 -17 33 21 32 54 -10 343 -36 247 -45 272 -92 272 -14 0 -30 -10 -41
-26z"/>
<path d="M1153 2710 c-24 -4 -45 -9 -48 -11 -2 -3 3 -60 12 -128 l17 -122 41
6 c22 4 51 14 64 22 22 14 23 20 19 92 -5 75 -25 135 -50 143 -7 2 -32 1 -55
-2z"/>
<path d="M677 2643 c-24 -4 -28 -8 -24 -26 3 -12 11 -69 18 -126 l13 -103 39
5 c56 8 77 31 77 87 0 63 -26 147 -50 160 -19 10 -23 10 -73 3z"/>
<path d="M882 3305 c-17 -37 -14 -45 4 -12 9 16 14 31 11 33 -2 2 -9 -7 -15
-21z"/>
<path d="M1014 3280 c-11 -4 -27 -19 -35 -32 -15 -22 -69 -152 -69 -164 0 -4
14 -4 31 0 22 4 54 -4 116 -29 48 -19 93 -35 100 -35 7 0 13 -9 13 -20 0 -13
7 -20 19 -20 26 0 61 97 40 111 -9 6 -18 3 -26 -7 -8 -12 -20 -14 -43 -9 -27
6 -31 10 -25 28 13 44 17 115 6 134 -11 21 -69 53 -93 52 -7 0 -22 -4 -34 -9z
m56 -60 c31 -17 41 -44 29 -79 -13 -37 -14 -37 -73 -11 -44 18 -45 20 -35 47
10 28 35 53 52 53 4 0 17 -5 27 -10z"/>
<path d="M1643 3253 c-22 -15 -21 -49 1 -36 6 3 6 1 -1 -8 -20 -21 -16 -25 25
-24 32 0 38 3 34 18 -2 9 1 24 8 32 10 12 9 15 -7 15 -10 0 -23 4 -28 9 -6 5
-19 3 -32 -6z"/>
<path d="M4749 3261 c-14 -5 -55 -11 -92 -15 -37 -4 -67 -11 -67 -14 0 -4 7
-63 15 -132 26 -215 65 -622 65 -680 0 -47 -5 -63 -36 -108 -20 -30 -33 -56
-30 -59 5 -5 131 10 194 23 12 2 22 12 22 21 0 16 1 16 13 0 9 -12 22 -15 55
-10 l42 6 -24 41 c-13 22 -37 66 -54 96 -16 30 -38 71 -49 90 -11 19 -39 71
-63 115 -23 44 -47 84 -51 89 -16 17 -10 44 57 259 80 256 84 270 84 279 0 10
-47 9 -81 -1z m25 -86 c-8 -33 -20 -32 -27 3 -6 33 12 62 25 38 5 -8 6 -27 2
-41z m-134 -36 c0 -27 -3 -48 -8 -45 -7 4 -4 96 4 96 2 0 4 -23 4 -51z m33
-84 c4 -8 2 -17 -3 -20 -6 -4 -10 3 -10 14 0 25 6 27 13 6z"/>
<path d="M4761 3194 c0 -11 3 -14 6 -6 3 7 2 16 -1 19 -3 4 -6 -2 -5 -13z"/>
<path d="M846 3215 c-9 -26 -7 -32 5 -12 6 10 9 21 6 23 -2 3 -7 -2 -11 -11z"/>
<path d="M831 3173 c-1 -6 -4 -20 -7 -30 -5 -17 -5 -17 6 0 6 10 9 23 6 30 -3
9 -5 9 -5 0z"/>
<path d="M801 3073 c-6 -21 -11 -45 -10 -53 0 -8 7 7 14 35 8 27 12 51 10 53
-2 2 -8 -13 -14 -35z"/>
<path d="M781 2984 c0 -11 3 -14 6 -6 3 7 2 16 -1 19 -3 4 -6 -2 -5 -13z"/>
<path d="M772 2930 c0 -14 2 -19 5 -12 2 6 2 18 0 25 -3 6 -5 1 -5 -13z"/>
<path d="M280 2624 c-47 -7 -101 -13 -120 -14 -19 0 -40 -4 -47 -8 -8 -5 20
-55 87 -157 54 -83 103 -155 107 -160 43 -56 75 -111 79 -138 2 -18 -19 -133
-49 -267 -30 -129 -49 -237 -45 -239 13 -5 338 41 338 48 0 3 -16 24 -35 45
-19 22 -39 51 -44 65 -9 24 -59 278 -97 496 -8 50 -19 108 -24 130 -4 22 -14
79 -21 128 -10 67 -17 87 -29 86 -8 -1 -53 -7 -100 -15z"/>
<path d="M4357 2324 c-102 -16 -107 -18 -107 -48 0 -35 -46 -208 -82 -311 -40
-114 -127 -285 -201 -395 -31 -47 -57 -91 -57 -98 0 -7 -4 -10 -10 -7 -5 3
-10 3 -10 -2 -1 -14 -114 -137 -206 -223 -66 -62 -153 -130 -166 -130 -4 0 -8
-6 -8 -13 0 -8 -6 -14 -13 -14 -8 0 -35 -14 -60 -32 -114 -78 -340 -175 -504
-215 -175 -44 -240 -51 -448 -50 -234 0 -350 18 -555 87 -200 66 -440 202
-586 330 -25 22 -49 35 -55 31 -7 -4 -9 -3 -6 3 4 6 -17 35 -46 64 -151 156
-243 281 -332 452 -26 51 -45 76 -55 74 -8 -1 -14 -10 -12 -20 4 -21 -16 -23
-24 -2 -8 19 -39 19 -56 1 -9 -10 -17 -11 -30 -2 -31 19 -41 -4 -29 -71 6 -33
10 -94 9 -135 -3 -68 -1 -79 20 -101 13 -14 47 -33 74 -42 28 -9 56 -22 62
-28 34 -35 46 -65 46 -115 0 -29 7 -67 16 -83 17 -33 66 -59 113 -59 63 0 131
-74 131 -143 0 -15 12 -41 28 -59 27 -29 35 -32 110 -37 95 -7 121 -25 157
-106 35 -79 47 -83 184 -77 l43 2 -6 38 -5 37 14 -40 c10 -28 25 -44 45 -54
18 -7 39 -29 50 -51 40 -79 90 -93 190 -55 62 24 113 9 173 -50 25 -24 56 -47
70 -50 42 -11 137 44 137 79 0 8 5 18 11 22 8 4 9 0 4 -15 -5 -18 -2 -21 25
-21 38 0 92 -22 122 -49 24 -23 76 -36 105 -27 10 3 37 24 61 45 64 58 123 64
196 20 59 -36 118 -20 156 41 42 68 103 85 205 58 66 -18 106 4 140 76 36 76
62 90 160 91 97 0 129 18 145 80 23 91 71 135 147 135 82 0 127 42 132 124 1
21 8 51 17 67 18 36 77 75 126 83 24 4 46 18 64 39 24 28 26 37 21 89 -7 83
20 134 91 169 65 31 97 77 87 123 -16 77 -17 126 -1 157 9 17 13 35 10 40 -3
5 0 8 8 7 7 -2 12 2 11 8 -1 6 9 12 22 12 26 0 45 15 63 49 17 32 15 68 -8
110 -26 49 -26 120 0 153 42 54 27 58 -123 34z m-63 -193 c3 -5 -1 -12 -10
-15 -22 -9 -24 -8 -24 9 0 16 25 21 34 6z m-43 -78 c-12 -20 -14 -14 -5 12 4
9 9 14 11 11 3 -2 0 -13 -6 -23z m106 -55 c-3 -8 -6 -5 -6 6 -1 11 2 17 5 13
3 -3 4 -12 1 -19z m-42 -147 c6 -11 -33 -26 -43 -16 -4 3 0 10 8 15 19 12 27
12 35 1z m-17 -68 c-2 -10 -7 -18 -12 -18 -5 0 -10 8 -12 18 -1 9 4 17 13 17
8 0 13 -7 11 -17z m57 -3 c22 -24 18 -31 -12 -19 -13 5 -23 15 -23 24 0 21 13
19 35 -5z m-3615 -16 c0 -8 -4 -14 -10 -14 -5 0 -10 9 -10 21 0 11 5 17 10 14
6 -3 10 -13 10 -21z m70 -16 c0 -4 -7 -8 -15 -8 -16 0 -38 34 -28 44 7 7 43
-23 43 -36z m3557 -14 c-3 -3 -12 -4 -19 -1 -8 3 -5 6 6 6 11 1 17 -2 13 -5z
m-3550 -76 c-3 -7 -5 -2 -5 12 0 14 2 19 5 13 2 -7 2 -19 0 -25z m3483 2 c0
-5 -4 -10 -10 -10 -5 0 -10 5 -10 10 0 6 5 10 10 10 6 0 10 -4 10 -10z m-3556
-9 c3 -5 -1 -11 -9 -15 -9 -3 -15 0 -15 9 0 16 16 20 24 6z m3371 -131 c3 -5
1 -10 -4 -10 -6 0 -11 5 -11 10 0 6 2 10 4 10 3 0 8 -4 11 -10z m-3134 -137
c-8 -15 -10 -15 -11 -2 0 17 10 32 18 25 2 -3 -1 -13 -7 -23z m34 -43 c3 -5 1
-10 -4 -10 -6 0 -11 5 -11 10 0 6 2 10 4 10 3 0 8 -4 11 -10z m85 -40 c0 -5
-4 -10 -10 -10 -5 0 -10 5 -10 10 0 6 5 10 10 10 6 0 10 -4 10 -10z m2718 -12
c-2 -7 2 -13 7 -13 6 0 9 5 7 10 -2 6 2 4 9 -2 18 -18 0 -34 -29 -27 -12 4
-22 13 -22 21 0 8 5 11 10 8 6 -3 10 -1 10 4 0 6 2 11 5 11 3 0 5 -6 3 -12z
m-2788 -38 c0 -5 -2 -10 -4 -10 -3 0 -8 5 -11 10 -3 6 -1 10 4 10 6 0 11 -4
11 -10z m2800 -50 c0 -5 -5 -10 -11 -10 -5 0 -7 5 -4 10 3 6 8 10 11 10 2 0 4
-4 4 -10z m0 -34 c0 -3 -4 -8 -10 -11 -5 -3 -10 -1 -10 4 0 6 5 11 10 11 6 0
10 -2 10 -4z m-380 -175 c0 -6 -4 -13 -10 -16 -5 -3 -10 1 -10 9 0 9 5 16 10
16 6 0 10 -4 10 -9z m-220 -201 c0 -5 -5 -10 -11 -10 -5 0 -7 5 -4 10 3 6 8
10 11 10 2 0 4 -4 4 -10z m-1280 -70 c0 -5 -2 -10 -4 -10 -3 0 -8 5 -11 10 -3
6 -1 10 4 10 6 0 11 -4 11 -10z m700 -21 c0 -6 -4 -7 -10 -4 -5 3 -10 11 -10
16 0 6 5 7 10 4 6 -3 10 -11 10 -16z m5 -89 c3 -5 1 -10 -4 -10 -6 0 -11 5
-11 10 0 6 2 10 4 10 3 0 8 -4 11 -10z"/>
<path d="M4190 2243 c-6 -32 -14 -69 -17 -83 -3 -14 -3 -22 0 -19 9 7 39 151
33 156 -2 3 -10 -22 -16 -54z"/>
<path d="M3812 2218 c-14 -38 1 -67 24 -47 10 9 30 6 81 -12 124 -43 124 -44
5 -58 -159 -18 -159 -18 -171 -53 -18 -51 -15 -61 16 -53 36 9 200 -50 233
-83 l24 -26 14 34 c17 41 9 64 -18 55 -20 -6 -175 39 -185 54 -2 4 54 14 126
21 124 12 131 14 140 37 5 13 9 28 9 33 0 7 -147 64 -218 85 -12 3 -27 15 -32
26 -16 28 -34 23 -48 -13z"/>
<path d="M3667 2224 c-4 -4 -7 -16 -7 -26 0 -10 -4 -18 -8 -18 -4 0 -23 -36
-40 -79 -36 -88 -123 -231 -183 -303 -32 -38 -36 -48 -22 -48 21 0 61 44 69
76 3 12 12 25 19 27 16 7 68 84 104 156 56 113 98 245 68 215z"/>
<path d="M3595 2148 c-45 -118 -102 -217 -193 -333 -22 -28 -23 -38 -3 -20 63
55 203 303 225 398 11 47 0 30 -29 -45z"/>
<path d="M4161 2114 c0 -11 3 -14 6 -6 3 7 2 16 -1 19 -3 4 -6 -2 -5 -13z"/>
<path d="M3347 2048 c-10 -5 -25 -7 -33 -4 -10 4 -14 -2 -14 -17 0 -13 -5 -28
-12 -35 -9 -9 -8 -12 8 -12 11 0 25 -5 30 -10 8 -8 15 -6 24 5 7 8 20 15 29
15 13 0 14 2 2 9 -8 5 -29 8 -45 6 -29 -4 -30 -3 -12 10 10 8 22 12 26 10 7
-5 24 25 18 31 -2 1 -11 -2 -21 -8z"/>
<path d="M4132 2023 c-15 -48 -8 -55 8 -8 7 20 10 38 8 41 -3 2 -10 -13 -16
-33z"/>
<path d="M4106 1955 c-9 -26 -7 -32 5 -12 6 10 9 21 6 23 -2 3 -7 -2 -11 -11z"/>
<path d="M1505 1893 c66 -103 202 -236 327 -321 72 -49 199 -110 299 -142 97
-32 109 -34 109 -22 0 4 -25 13 -55 20 -227 53 -491 231 -643 435 -44 59 -68
78 -37 30z"/>
<path d="M4086 1905 c-9 -26 -7 -32 5 -12 6 10 9 21 6 23 -2 3 -7 -2 -11 -11z"/>
<path d="M1440 1903 c0 -24 232 -283 253 -283 4 0 17 -10 30 -22 33 -32 78
-63 91 -63 6 0 17 -8 24 -18 34 -45 330 -161 438 -172 27 -3 67 -7 89 -10 154
-21 384 5 540 63 83 30 232 105 288 144 47 32 150 120 165 140 7 9 19 23 27
31 14 14 10 27 -7 27 -5 0 -6 -4 -3 -10 3 -5 0 -10 -7 -10 -8 0 -30 -16 -49
-36 -44 -47 -170 -142 -232 -174 -26 -14 -47 -32 -48 -40 0 -10 -2 -11 -6 -3
-3 9 -14 8 -41 -6 -155 -78 -438 -126 -617 -103 -55 7 -82 7 -86 0 -4 -6 -8
-6 -10 -1 -2 6 -47 22 -99 37 -262 74 -501 235 -658 441 -25 33 -51 63 -57 67
-13 10 -25 10 -25 1z"/>
<path d="M1816 1883 c-7 -23 -26 -32 -26 -13 0 6 -7 10 -15 10 -8 0 -15 -8
-15 -18 0 -10 -5 -23 -12 -30 -9 -9 -8 -12 8 -12 11 0 26 -6 32 -12 9 -9 15
-10 20 -2 4 6 15 14 26 17 13 5 15 11 8 20 -6 6 -12 23 -14 37 -4 25 -4 25
-12 3z"/>
<path d="M3639 1837 c-40 -34 -59 -72 -59 -117 0 -51 49 -108 125 -146 67 -32
103 -27 145 24 56 68 49 134 -22 197 -73 67 -143 82 -189 42z m123 -66 c77
-49 98 -101 57 -142 -16 -16 -27 -19 -52 -13 -70 15 -152 94 -139 134 18 56
67 64 134 21z"/>
<path d="M4051 1823 c-10 -26 -10 -27 4 -9 8 11 15 23 15 28 0 15 -7 8 -19
-19z"/>
<path d="M1357 1813 c-4 -3 -7 -14 -7 -23 0 -9 -17 -30 -37 -46 -55 -43 -107
-88 -114 -98 -4 -5 -13 -6 -21 -3 -22 8 -42 -8 -32 -25 21 -36 65 -79 77 -75
6 2 12 19 12 37 0 54 25 60 75 18 23 -20 53 -39 66 -42 36 -9 93 21 111 60 15
30 15 35 -7 76 -12 23 -25 45 -29 48 -3 3 -19 22 -34 43 -27 35 -46 45 -60 30z
m67 -109 c23 -34 17 -65 -16 -84 -25 -13 -31 -13 -55 0 -40 23 -40 47 -1 81
41 35 51 36 72 3z"/>
<path d="M940 1780 c6 -11 13 -20 16 -20 2 0 0 9 -6 20 -6 11 -13 20 -16 20
-2 0 0 -9 6 -20z"/>
<path d="M3033 1792 c-27 -3 -33 -8 -33 -27 0 -13 -5 -25 -11 -27 -5 -2 6 -11
25 -19 28 -13 36 -14 36 -3 0 7 8 14 18 16 15 3 16 8 7 33 -9 26 -14 30 -42
27z"/>
<path d="M4017 1755 c-9 -19 -15 -35 -12 -35 7 0 37 61 33 66 -3 2 -12 -12
-21 -31z"/>
<path d="M3310 1717 c-63 -60 -117 -102 -178 -141 -24 -15 -41 -30 -39 -33 10
-9 140 84 217 156 41 39 71 70 65 70 -5 1 -35 -23 -65 -52z"/>
<path d="M2137 1679 c3 -9 0 -20 -6 -23 -18 -11 -13 -26 9 -26 10 0 23 -7 28
-17 9 -14 10 -14 16 5 5 14 16 22 29 22 20 1 20 2 5 11 -10 5 -18 18 -18 27 0
14 -8 18 -34 18 -26 0 -32 -4 -29 -17z m53 -30 c0 -5 -4 -9 -10 -9 -5 0 -10 7
-10 16 0 8 5 12 10 9 6 -3 10 -10 10 -16z"/>
<path d="M1005 1666 c10 -14 19 -26 22 -26 7 0 -17 39 -28 46 -6 3 -3 -5 6
-20z"/>
<path d="M2680 1675 c-14 -7 -41 -17 -61 -20 -32 -6 -35 -9 -31 -36 2 -17 0
-29 -7 -29 -5 0 -15 -9 -21 -20 -6 -11 -7 -20 -3 -19 30 5 73 -3 73 -13 0 -7
7 -21 15 -32 13 -17 15 -16 29 17 12 29 21 37 51 43 l36 6 -31 22 c-28 19 -30
25 -25 59 3 20 4 37 3 37 -2 -1 -14 -7 -28 -15z"/>
<path d="M2585 1670 c3 -5 8 -10 11 -10 2 0 4 5 4 10 0 6 -5 10 -11 10 -5 0
-7 -4 -4 -10z"/>
<path d="M3966 1663 c-6 -14 -5 -15 5 -6 7 7 10 15 7 18 -3 3 -9 -2 -12 -12z"/>
<path d="M3932 1613 c-26 -38 -34 -53 -29 -53 2 0 16 18 31 40 29 45 28 56 -2
13z"/>
<path d="M3407 1579 c-29 -25 -35 -35 -26 -45 6 -8 20 -14 30 -14 10 0 24 -8
31 -18 7 -11 37 -45 66 -77 30 -34 52 -68 52 -81 0 -37 19 -38 57 -1 35 35 37
57 5 57 -10 0 -41 26 -69 58 -78 87 -92 106 -90 126 3 30 -17 28 -56 -5z"/>
<path d="M1050 1599 c0 -3 11 -20 25 -39 14 -19 25 -30 25 -24 -1 10 -50 73
-50 63z"/>
<path d="M1599 1558 c0 -2 -2 -14 -3 -28 -1 -14 -20 -50 -42 -80 -22 -30 -47
-67 -57 -82 -10 -16 -26 -28 -36 -28 -37 0 -31 -28 11 -60 23 -16 46 -30 50
-30 15 0 21 30 9 43 -8 10 -5 21 12 45 25 36 27 37 50 20 16 -12 16 -19 4 -83
-14 -70 -14 -71 10 -89 39 -29 48 -17 46 67 l-2 75 37 0 c66 0 104 75 66 130
-25 36 -149 116 -155 100z m89 -98 c26 -24 28 -52 6 -74 -23 -23 -43 -19 -93
20 -7 6 44 74 55 74 5 0 20 -9 32 -20z"/>
<path d="M3874 1528 l-19 -23 23 19 c21 18 27 26 19 26 -2 0 -12 -10 -23 -22z"/>
<path d="M3050 1525 c-14 -16 -3 -20 19 -6 8 5 9 11 3 15 -5 3 -15 -1 -22 -9z"/>
<path d="M1119 1505 c14 -27 51 -69 55 -64 2 2 -12 22 -31 44 -19 22 -30 31
-24 20z"/>
<path d="M2996 1499 c-42 -25 -182 -70 -278 -90 -111 -22 -293 -27 -398 -10
-52 8 -70 7 -58 -4 2 -2 58 -10 124 -17 103 -10 137 -9 248 6 71 9 163 28 206
42 84 26 190 70 190 79 0 8 -13 5 -34 -6z"/>
<path d="M3265 1467 c-19 -14 -81 -49 -157 -90 -33 -18 -35 -22 -26 -43 11
-25 38 -33 38 -13 0 14 30 38 47 39 16 0 115 -175 111 -197 -6 -38 11 -45 55
-21 23 12 43 23 45 24 9 4 -13 34 -27 34 -15 0 -62 71 -106 158 -20 41 -7 62
36 62 31 0 37 15 16 43 -10 15 -15 16 -32 4z"/>
<path d="M3794 1428 l-19 -23 23 19 c12 11 22 21 22 23 0 8 -8 2 -26 -19z"/>
<path d="M1215 1390 c21 -22 41 -40 44 -40 3 0 -13 18 -34 40 -21 22 -41 40
-44 40 -3 0 13 -18 34 -40z"/>
<path d="M3750 1385 c-20 -24 -6 -28 15 -5 10 11 13 20 8 20 -6 0 -16 -7 -23
-15z"/>
<path d="M3702 1332 c-13 -13 -22 -26 -19 -28 2 -2 14 7 27 21 13 14 22 26 19
28 -2 2 -14 -8 -27 -21z"/>
<path d="M1906 1308 c-43 -42 -68 -100 -69 -164 -1 -42 3 -55 25 -77 15 -15
47 -32 71 -39 65 -17 113 9 150 82 55 108 46 174 -27 210 -64 30 -110 27 -150
-12z m121 -23 c32 -23 37 -64 14 -125 -11 -29 -28 -61 -37 -71 -20 -22 -62
-25 -88 -6 -40 29 -9 163 46 201 28 20 38 20 65 1z"/>
<path d="M1310 1295 c13 -14 26 -25 28 -25 3 0 -5 11 -18 25 -13 14 -26 25
-28 25 -3 0 5 -11 18 -25z"/>
<path d="M2847 1286 c-50 -18 -64 -31 -78 -73 -23 -72 15 -194 73 -228 36 -21
97 -14 139 16 54 38 62 130 19 225 -14 33 -28 49 -54 59 -42 18 -50 18 -99 1z
m78 -60 c43 -43 60 -153 28 -188 -21 -24 -65 -23 -87 1 -25 28 -45 89 -46 138
0 68 58 96 105 49z"/>
<path d="M1360 1251 c0 -5 7 -12 16 -15 14 -5 15 -4 4 9 -14 17 -20 19 -20 6z"/>
<path d="M2250 1236 c0 -8 5 -18 11 -22 18 -11 2 -222 -17 -242 -19 -19 -9
-28 39 -36 40 -7 48 6 26 42 -8 13 -9 47 -4 108 7 88 7 89 21 54 7 -19 25 -74
39 -122 24 -79 29 -88 50 -88 28 0 38 16 85 136 17 44 35 82 39 87 4 4 5 -35
3 -85 -3 -64 -8 -96 -18 -104 -8 -6 -14 -19 -14 -28 0 -13 10 -16 50 -16 43 0
50 3 50 19 0 11 -4 23 -10 26 -15 9 -1 217 16 231 31 25 9 44 -50 44 -32 0
-33 -1 -81 -120 -26 -66 -51 -120 -55 -120 -4 0 -19 42 -34 93 -15 50 -32 107
-38 125 -9 30 -12 32 -59 32 -36 0 -49 -4 -49 -14z"/>
<path d="M3566 1210 c-26 -22 -44 -40 -40 -40 10 0 103 80 94 80 -3 0 -27 -18
-54 -40z"/>
<path d="M1404 1211 c7 -11 46 -35 46 -28 0 3 -12 12 -26 22 -15 9 -23 12 -20
6z"/>
<path d="M1460 1171 c0 -5 7 -12 16 -15 14 -5 15 -4 4 9 -14 17 -20 19 -20 6z"/>
<path d="M3480 1146 c-8 -8 -49 -35 -90 -60 -41 -25 -70 -46 -64 -46 14 0 159
94 168 109 10 15 3 14 -14 -3z"/>
<path d="M1595 1076 c37 -25 117 -67 121 -63 2 2 -8 10 -24 18 -15 7 -44 24
-64 36 -40 25 -65 32 -33 9z"/>
<path d="M3220 995 c-25 -13 -40 -24 -35 -24 6 0 30 11 55 24 25 13 41 24 35
24 -5 0 -30 -11 -55 -24z"/>
<path d="M1760 990 c8 -5 20 -10 25 -10 6 0 3 5 -5 10 -8 5 -19 10 -25 10 -5
0 -3 -5 5 -10z"/>
<path d="M1850 950 c8 -5 20 -10 25 -10 6 0 3 5 -5 10 -8 5 -19 10 -25 10 -5
0 -3 -5 5 -10z"/>
<path d="M3120 950 c-8 -5 -10 -10 -5 -10 6 0 17 5 25 10 8 5 11 10 5 10 -5 0
-17 -5 -25 -10z"/>
<path d="M1915 925 c17 -8 37 -14 45 -14 8 0 -1 7 -20 14 -46 18 -64 17 -25 0z"/>
<path d="M3020 915 c-19 -7 -28 -14 -20 -14 8 0 29 6 45 14 39 17 21 18 -25 0z"/>
<path d="M2935 890 c-13 -5 -14 -9 -5 -9 8 0 24 4 35 9 13 5 14 9 5 9 -8 0
-24 -4 -35 -9z"/>
<path d="M2048 883 c7 -3 16 -2 19 1 4 3 -2 6 -13 5 -11 0 -14 -3 -6 -6z"/>
<path d="M2088 873 c7 -3 16 -2 19 1 4 3 -2 6 -13 5 -11 0 -14 -3 -6 -6z"/>
<path d="M2813 864 c-34 -7 -102 -17 -150 -22 -70 -7 -77 -10 -37 -11 50 -1
198 21 259 39 47 13 -2 10 -72 -6z"/>
<path d="M2128 863 c7 -3 16 -2 19 1 4 3 -2 6 -13 5 -11 0 -14 -3 -6 -6z"/>
<path d="M2195 850 c17 -4 39 -8 50 -8 16 0 15 2 -5 8 -14 4 -36 8 -50 8 -22
0 -22 -1 5 -8z"/>
<path d="M2318 833 c18 -2 45 -2 60 0 15 2 0 4 -33 4 -33 0 -45 -2 -27 -4z"/>
<path d="M2457 823 c18 -2 50 -2 70 0 21 2 7 4 -32 4 -38 0 -55 -2 -38 -4z"/>
</g>
</svg>
